<?xml version="1.0" encoding="utf-8"?>
<!-- Generator: Adobe Illustrator 26.5.0, SVG Export Plug-In . SVG Version: 6.00 Build 0)  -->
<svg version="1.1" id="Capa_1" xmlns="http://www.w3.org/2000/svg" xmlns:xlink="http://www.w3.org/1999/xlink" x="0px" y="0px"
	 viewBox="0 0 1000 1000" style="enable-background:new 0 0 1000 1000;" xml:space="preserve">
<style type="text/css">
	.st0{fill:#FFFFFF;}
</style>
<path class="st0" d="M1000,487.1c0,269-219.8,487.1-490.9,487.1c-86.1,0-166.9-22-237.3-60.6L0,1000l88.6-261.4
	c-44.7-73.4-70.4-159.5-70.4-251.5C18.2,218.1,238,0,509.1,0S1000,218.1,1000,487.1L1000,487.1z M509.1,77.5
	c-227.6,0-412.7,183.7-412.7,409.6c0,89.6,29.2,172.6,78.6,240.1l-51.6,152.1L282,828.9c65.2,42.8,143.3,67.8,227.1,67.8
	c227.6,0,412.7-183.7,412.7-409.5S736.7,77.5,509.1,77.5L509.1,77.5z M757,599.3c-3-5-11.1-8-23.1-13.9c-12-6-71.2-34.9-82.2-38.8
	c-11.1-4-19.1-6-27.1,6s-31.1,38.8-38.1,46.8s-14,9-26.1,3c-12-6-50.8-18.6-96.8-59.3c-35.8-31.7-59.9-70.7-66.9-82.7
	S396,441.9,402,436c5.4-5.4,12-13.9,18.1-20.9s8-12,12-19.9s2-14.9-1-20.9S404,309.6,394,285.7s-20-19.9-27.1-19.9c-7,0-15-1-23.1-1
	c-8,0-21.1,3-32.1,14.9s-42.1,40.9-42.1,99.6c0,58.8,43.1,115.5,49.1,123.5S401.9,635.2,524.3,683s122.4,31.8,144.4,29.9
	c22-2,71.2-28.9,81.2-56.8S759.9,604.3,757,599.3L757,599.3z"/>
</svg>
